<svg width="41" height="41" viewBox="0 0 41 41" fill="none" xmlns="http://www.w3.org/2000/svg">
<path d="M20.5029 24.7588L5.5987 39.6629C5.04106 40.2206 4.33134 40.4994 3.46953 40.4994C2.60773 40.4994 1.898 40.2206 1.34036 39.6629C0.782725 39.1053 0.503906 38.3956 0.503906 37.5338C0.503906 36.672 0.782725 35.9622 1.34036 35.4046L16.2445 20.5004L1.34036 5.59626C0.782725 5.03862 0.503906 4.3289 0.503906 3.46709C0.503906 2.60528 0.782725 1.89556 1.34036 1.33792C1.898 0.780283 2.60773 0.501465 3.46953 0.501465C4.33134 0.501465 5.04106 0.780283 5.5987 1.33792L20.5029 16.2421L35.407 1.33792C35.9647 0.780283 36.6744 0.501465 37.5362 0.501465C38.398 0.501465 39.1077 0.780283 39.6654 1.33792C40.223 1.89556 40.5018 2.60528 40.5018 3.46709C40.5018 4.3289 40.223 5.03862 39.6654 5.59626L24.7612 20.5004L39.6654 35.4046C40.223 35.9622 40.5018 36.672 40.5018 37.5338C40.5018 38.3956 40.223 39.1053 39.6654 39.6629C39.1077 40.2206 38.398 40.4994 37.5362 40.4994C36.6744 40.4994 35.9647 40.2206 35.407 39.6629L20.5029 24.7588Z" fill="#E8DDD2"/>
</svg>
