<svg width="85" height="85" viewBox="0 0 85 85" fill="none" xmlns="http://www.w3.org/2000/svg">
<path d="M30.3668 43.9459C23.7685 43.9459 18.4004 49.3141 18.4004 55.9123C18.4004 62.5106 23.7685 67.8785 30.3668 67.8785C36.9649 67.8785 42.3332 62.5106 42.3332 55.9123C42.3332 53.5145 41.6261 51.2006 40.2889 49.2208C39.9411 48.7064 39.2422 48.5709 38.7273 48.9185C38.2127 49.2665 38.0772 49.9654 38.425 50.4801C39.5104 52.0866 40.084 53.9647 40.084 55.9123C40.084 61.2702 35.7249 65.6293 30.367 65.6293C25.0088 65.6293 20.6499 61.2702 20.6499 55.9123C20.6499 50.5543 25.0088 46.1952 30.367 46.1952C30.988 46.1952 31.4916 45.6917 31.4916 45.0708C31.4914 44.4494 30.9879 43.9459 30.3668 43.9459Z" fill="#070404"/>
<path d="M51.1573 66.5827L48.2164 63.6414C47.9521 63.3771 47.88 62.9689 48.0253 62.6194C48.0283 62.613 48.042 62.5806 48.0445 62.5741C48.1963 62.2079 48.5353 61.9711 48.9083 61.9711H53.0677C53.6886 61.9711 54.1923 61.4676 54.1923 60.8466V49.693C54.1923 49.0719 53.6886 48.5684 53.0677 48.5684H48.9083C48.5353 48.5684 48.1963 48.3316 48.0329 47.9379C47.88 47.5705 47.9522 47.1622 48.2164 46.8976L51.1573 43.9566C51.5966 43.5175 51.5966 42.8055 51.1573 42.3662L43.2708 34.4796C42.8315 34.0405 42.1194 34.0405 41.6802 34.4796C41.2409 34.9189 41.2409 35.631 41.6802 36.0702L48.7719 43.1616L46.6261 45.3072C45.7152 46.2179 45.4522 47.5896 45.9665 48.8259C46.4674 50.0356 47.622 50.8176 48.9083 50.8176H51.9429V59.7218H48.9083C47.622 59.7218 46.4674 60.5037 45.9747 61.6941C45.9722 61.6999 45.9586 61.7319 45.9562 61.7379C45.4519 62.9496 45.7148 64.3216 46.6261 65.232L48.7719 67.3779L42.4755 73.6742L40.3298 71.5283C39.4187 70.6172 38.0469 70.3544 36.8113 70.8688C35.6013 71.3698 34.8194 72.5248 34.8194 73.8107V76.8453H25.9153V73.8105C25.9153 72.5244 25.1336 71.3696 23.8992 70.8586C22.6875 70.3546 21.316 70.6174 20.4049 71.5282L18.2592 73.6741L11.963 67.3778L14.1088 65.2319C15.0196 64.3208 15.2825 62.9491 14.7684 61.7135C14.2672 60.5037 13.1124 59.7218 11.8266 59.7218H8.79215V50.8176H11.8267C13.1127 50.8176 14.2675 50.0356 14.7787 48.8015C15.2825 47.5897 15.0197 46.2181 14.109 45.307L11.9632 43.1614L18.2594 36.8653L20.4051 39.0109C21.3159 39.922 22.6873 40.1849 23.9236 39.6706C25.1336 39.1694 25.9153 38.0146 25.9153 36.7288V33.6942H34.8194V36.7288C34.8194 38.0149 35.6013 39.1697 36.8113 39.6706C37.2167 39.8386 37.6221 40.0255 38.0157 40.2261C38.5685 40.5078 39.246 40.288 39.5283 39.7345C39.8102 39.1812 39.5902 38.504 39.0367 38.222C38.5908 37.9947 38.1316 37.783 37.6717 37.5924C37.3053 37.4407 37.0686 37.1017 37.0686 36.7286V32.5693C37.0686 31.9481 36.5651 31.4447 35.944 31.4447H24.7907C24.1697 31.4447 23.6661 31.9481 23.6661 32.5693V36.7286C23.6661 37.1017 23.4294 37.4407 23.0355 37.6039C22.6684 37.7569 22.26 37.6849 21.9957 37.4204L19.0547 34.4795C18.6155 34.0404 17.9032 34.0404 17.4641 34.4795L9.5774 42.366C9.13812 42.8053 9.13812 43.5175 9.5774 43.9568L12.5184 46.8974C12.7828 47.1621 12.8547 47.5703 12.7056 47.9289C12.7041 47.9324 12.692 47.9616 12.6904 47.9651C12.5386 48.3315 12.1996 48.5682 11.8267 48.5682H7.66756C7.04649 48.5682 6.54297 49.0717 6.54297 49.6928V60.8464C6.54297 61.4675 7.04649 61.971 7.66756 61.971H11.8269C12.1998 61.971 12.5388 62.2077 12.7021 62.6015C12.8549 62.9689 12.7828 63.3771 12.5185 63.6414L9.57757 66.5824C9.13829 67.0217 9.13829 67.7339 9.57757 68.1732L17.4643 76.0597C17.9036 76.4988 18.6156 76.4988 19.0549 76.0597L21.9959 73.1186C22.2602 72.854 22.6684 72.7827 23.027 72.9315C23.0305 72.933 23.0597 72.9451 23.0632 72.9468C23.4296 73.0985 23.6663 73.4375 23.6663 73.8105V77.9697C23.6663 78.591 24.1698 79.0943 24.7909 79.0943H35.9443C36.5654 79.0943 37.0689 78.591 37.0689 77.9697V73.8105C37.0689 73.4373 37.3057 73.0983 37.6594 72.9516C37.6642 72.9496 37.6951 72.937 37.6998 72.935C38.067 72.7821 38.4754 72.8545 38.7395 73.1184L41.6805 76.0594C41.8915 76.2704 42.1775 76.3888 42.4759 76.3888C42.774 76.3888 43.0601 76.2704 43.2711 76.0596L51.1577 68.173C51.5966 67.7337 51.5966 67.0217 51.1573 66.5827Z" fill="#070404"/>
<path d="M62.7422 51.8809C62.7422 55.8736 65.9905 59.122 69.9835 59.122C73.9765 59.122 77.2247 55.8736 77.2247 51.8809C77.2247 47.8881 73.9765 44.6395 69.9835 44.6395C65.9905 44.6395 62.7422 47.8881 62.7422 51.8809ZM74.9754 51.8809C74.9754 54.6334 72.736 56.8728 69.9835 56.8728C67.2309 56.8728 64.9914 54.6334 64.9914 51.8809C64.9914 49.128 67.2309 46.8888 69.9835 46.8888C72.736 46.8888 74.9754 49.128 74.9754 51.8809Z" fill="#070404"/>
<path d="M77.3309 73.6752C77.9518 73.6752 78.4555 73.1719 78.4555 72.5508V69.734C78.4555 65.0615 74.6542 61.2603 69.9816 61.2603C65.3089 61.2603 61.5076 65.0615 61.5076 69.734V76.9756H47.816C47.1951 76.9756 46.6914 77.479 46.6914 78.1002C46.6914 78.7213 47.1951 79.2246 47.816 79.2246H62.5778C62.5962 79.2256 62.6136 79.2301 62.6322 79.2301H77.3307C77.9516 79.2301 78.4553 78.7266 78.4553 78.1057C78.4553 77.4845 77.9516 76.9809 77.3307 76.9809H63.757V69.734C63.757 66.3018 66.5494 63.5094 69.9816 63.5094C73.4138 63.5094 76.2062 66.3018 76.2062 69.734V72.5508C76.2062 73.1719 76.7098 73.6752 77.3309 73.6752Z" fill="#070404"/>
<path d="M15.5406 30.7414C16.1617 30.7414 16.6652 30.2379 16.6652 29.6168V10.7063H24.1249C24.746 10.7063 25.2495 10.203 25.2495 9.58174C25.2495 8.96068 24.746 8.45715 24.1249 8.45715H15.5406C14.9195 8.45715 14.416 8.96068 14.416 9.58174V29.6168C14.416 30.2381 14.9195 30.7414 15.5406 30.7414Z" fill="#070404"/>
<path d="M62.3295 10.7063H69.9551V37.9224C69.9551 38.5437 70.4586 39.047 71.0797 39.047C71.7006 39.047 72.2041 38.5435 72.2041 37.9224V9.58174C72.2041 8.96068 71.7006 8.45715 71.0797 8.45715H62.3295C61.7086 8.45715 61.2051 8.96068 61.2051 9.58174C61.2051 10.203 61.7086 10.7063 62.3295 10.7063Z" fill="#070404"/>
<path d="M30.775 15.5499H55.8442C56.4651 15.5499 56.9686 15.0463 56.9686 14.4253V6.8943C56.9686 6.27324 56.4651 5.76971 55.8442 5.76971H30.775C30.1539 5.76971 29.6504 6.27324 29.6504 6.8943V14.4253C29.6504 15.0463 30.1539 15.5499 30.775 15.5499ZM31.8996 8.01889H54.7194V13.3005H31.8996V8.01889Z" fill="#070404"/>
<path d="M30.3668 48.6366C29.7455 48.6366 29.2422 49.1401 29.2422 49.7612V55.9122C29.2422 56.5333 29.7455 57.0367 30.3668 57.0367H34.4697C35.0908 57.0367 35.5943 56.5333 35.5943 55.9122C35.5943 55.291 35.0908 54.7875 34.4697 54.7875H31.4915V49.7614C31.4914 49.1401 30.9878 48.6366 30.3668 48.6366Z" fill="#070404"/>
<path d="M27.9976 24.4005H53.3881C54.009 24.4005 54.5125 23.8971 54.5125 23.2759C54.5125 22.6548 54.009 22.1513 53.3881 22.1513H27.9976C27.3764 22.1513 26.873 22.6548 26.873 23.2759C26.873 23.897 27.3764 24.4005 27.9976 24.4005Z" fill="#070404"/>
<path d="M53.3891 31.2277H48.232C47.6111 31.2277 47.1074 31.7312 47.1074 32.3523C47.1074 32.9734 47.6111 33.4769 48.232 33.4769H53.3891C54.01 33.4769 54.5135 32.9734 54.5135 32.3523C54.5135 31.7312 54.01 31.2277 53.3891 31.2277Z" fill="#070404"/>
<path d="M60.152 25.664C60.3717 25.8835 60.6595 25.9932 60.9471 25.9932C61.235 25.9932 61.523 25.8833 61.7423 25.6639L64.9281 22.4778C65.3674 22.0387 65.3674 21.3267 64.9281 20.8874C64.4889 20.4485 63.7765 20.4483 63.3379 20.8876L60.9471 23.2784L59.9998 22.3313C59.5605 21.8921 58.8481 21.892 58.4095 22.3314C57.9703 22.7705 57.9703 23.4827 58.4095 23.9218L60.152 25.664Z" fill="#070404"/>
<path d="M60.152 34.7406C60.3717 34.9601 60.6595 35.07 60.9471 35.07C61.235 35.07 61.523 34.9601 61.7423 34.7404L64.9281 31.5544C65.3674 31.1153 65.3674 30.4033 64.9281 29.964C64.4889 29.5251 63.7765 29.5249 63.3379 29.9642L60.9471 32.355L59.9998 31.4079C59.5605 30.9687 58.8481 30.9686 58.4095 31.4079C57.9703 31.847 57.9703 32.5592 58.4095 32.9983L60.152 34.7406Z" fill="#070404"/>
</svg>
