<svg width="45" height="45" viewBox="0 0 45 45" fill="none" xmlns="http://www.w3.org/2000/svg">
<path d="M43.5 7.49597C43.5 10.8058 34.098 13.4919 22.5 13.4919C10.902 13.4919 1.5 10.8058 1.5 7.49597M43.5 7.49597C43.5 4.18613 34.098 1.5 22.5 1.5C10.902 1.5 1.5 4.18613 1.5 7.49597M43.5 7.49597V37.4766C43.5 40.7864 34.098 43.4725 22.5 43.4725C10.902 43.4725 1.5 40.7868 1.5 37.4769V7.49597M43.5 22.4861C43.5 25.7959 34.098 28.4824 22.5 28.4824C10.902 28.4824 1.5 25.7959 1.5 22.4861" stroke="#E8DDD2" stroke-width="3" stroke-linecap="square"/>
</svg>
