<svg width="85" height="85" viewBox="0 0 85 85" fill="none" xmlns="http://www.w3.org/2000/svg">
<g clip-path="url(#clip0_752_529)">
<path d="M22.6484 39.0867C22.6484 39.8446 22.9444 40.5558 23.48 41.0899L24.4816 42.0914C25.8203 43.4287 27.5968 44.1654 29.4894 44.1654C31.3821 44.1654 33.16 43.4288 34.4987 42.0914L41.5551 35.035C44.3502 37.3696 47.8395 38.6403 51.5228 38.6403H51.53C55.6934 38.6375 59.612 37.0125 62.5601 34.0631C63.1141 33.5093 63.1141 32.6125 62.5601 32.06C62.0061 31.506 61.1108 31.506 60.557 32.06C58.143 34.474 54.9357 35.8056 51.5286 35.8071H51.5243C48.12 35.8071 44.9199 34.4812 42.5129 32.0743C41.9589 31.5218 41.0623 31.5218 40.5098 32.0743L32.4942 40.0883C30.8906 41.6933 28.0899 41.6933 26.4849 40.0883L25.4833 39.0867L42.5129 22.0571C44.101 20.4691 45.6097 20.469 47.5207 20.469C49.5663 20.469 52.115 20.469 54.5331 18.0509L58.5394 14.0431C59.0932 13.4893 59.0932 12.5925 58.5394 12.04C57.9869 11.486 57.0901 11.486 56.5363 12.04L52.53 16.0478C50.9406 17.6358 49.4319 17.6358 47.5207 17.6358C45.4751 17.6358 42.9279 17.6358 40.5098 20.054L23.4813 37.0821C22.9444 37.6177 22.6484 38.3289 22.6484 39.0867Z" fill="#070404"/>
<path d="M12.7494 15.5872C14.3119 15.5872 15.5827 14.3165 15.5827 12.7538C15.5827 11.1913 14.3121 9.92047 12.7494 9.92047C11.1869 9.92047 9.91602 11.1911 9.91602 12.7538C9.91602 14.3165 11.1869 15.5872 12.7494 15.5872Z" fill="#070404"/>
<path d="M26.4847 20.054L30.4909 24.0603C30.7685 24.338 31.1313 24.4753 31.4925 24.4753C31.8552 24.4753 32.2178 24.3378 32.4941 24.0603C33.0481 23.5078 33.0481 22.6109 32.4941 22.0571L28.4878 18.0509C27.9353 17.497 27.0385 17.497 26.4847 18.0509C25.9322 18.6034 25.9322 19.5 26.4847 20.054Z" fill="#070404"/>
<path d="M72.2494 9.92064C73.8106 9.92064 75.0827 8.64997 75.0827 7.08727C75.0827 5.52475 73.8106 4.25391 72.2494 4.25391C70.6882 4.25391 69.416 5.52458 69.416 7.08727C69.416 8.6498 70.6882 9.92064 72.2494 9.92064Z" fill="#070404"/>
<path d="M75.4979 30.169C73.1958 32.4711 72.4054 36.2208 71.6417 39.8476C70.9645 43.0663 70.2633 46.3969 68.5577 48.1025L66.553 50.1056C66.0005 50.6596 66.0005 51.5562 66.553 52.1087C66.8306 52.3865 67.1934 52.5238 67.5561 52.5238C67.9173 52.5238 68.2801 52.3863 68.5577 52.1087L70.5608 50.1056C72.8614 47.805 73.6505 44.0565 74.4142 40.4313C75.0927 37.2098 75.7954 33.8792 77.501 32.1722C78.055 31.6198 78.055 30.7229 77.501 30.1691C76.9472 29.615 76.0519 29.615 75.4979 30.169Z" fill="#070404"/>
<path d="M84.5839 30.1689L61.5022 7.08728L66.1672 2.42228C66.7212 1.86829 66.7212 0.972976 66.1672 0.419152C65.6132 -0.134672 64.7179 -0.134672 64.1641 0.419152L58.4975 6.08572C57.9435 6.63971 57.9435 7.53502 58.4975 8.08885L82.5807 32.1721C82.857 32.4483 83.2197 32.5871 83.5823 32.5871C83.9449 32.5871 84.3076 32.4483 84.5839 32.1721C85.1377 31.6181 85.1377 30.7227 84.5839 30.1689Z" fill="#070404"/>
<path d="M52.5299 42.0914C51.9759 41.5389 51.0806 41.5389 50.5268 42.0914C49.9729 42.6454 49.9729 43.542 50.5268 44.096L65.5519 59.1211C66.6569 60.2261 66.6569 62.0239 65.5519 63.1289C64.4497 64.2311 62.6506 64.2324 61.5441 63.1289L46.519 48.1024C45.965 47.5484 45.0684 47.5484 44.5159 48.1024C43.9619 48.6564 43.9619 49.5531 44.5159 50.1056L63.5486 69.1383C64.6536 70.2433 64.6536 72.041 63.5486 73.1445C62.4436 74.248 60.6473 74.251 59.5408 73.1459L41.5112 55.1147C40.9572 54.5607 40.0606 54.5607 39.5081 55.1147C38.9541 55.6672 38.9541 56.564 39.5081 57.1178L55.5347 73.1445C56.6397 74.2495 56.6397 76.0473 55.5347 77.1523C54.4638 78.2232 52.5994 78.2233 51.5285 77.151L49.5239 75.1478H49.5224L36.5019 62.1273C35.9479 61.5735 35.0512 61.5735 34.4987 62.1273C33.9449 62.6798 33.9449 63.5766 34.4987 64.1305L47.5206 77.1523C48.0561 77.6879 48.3508 78.3989 48.3508 79.1569C48.3508 79.9134 48.0561 80.6246 47.5206 81.16C46.4184 82.2622 44.6193 82.265 43.5143 81.1585L19.4185 57.0853C15.7451 53.4119 14.9476 48.7809 14.2435 44.6938C13.6513 41.2557 13.0917 38.0086 10.9186 35.8355C10.3646 35.2815 9.46925 35.2815 8.91543 35.8355C8.36161 36.3895 8.36144 37.2848 8.91543 37.8386C10.4526 39.3757 10.9157 42.063 11.4513 45.1754C12.1879 49.4538 13.106 54.7789 17.4154 59.0884L41.5112 83.1632C42.6147 84.2667 44.0655 84.8207 45.5174 84.8207C46.9681 84.8192 48.4202 84.2667 49.5237 83.1632C50.3284 82.3572 50.8624 81.3526 51.0778 80.2591C53.1546 81.2606 55.859 80.8371 57.5377 79.1556C58.3437 78.3496 58.8764 77.3437 59.0918 76.25C61.1983 77.2615 63.8077 76.8918 65.5517 75.1478C67.7617 72.9393 67.7617 69.3451 65.5517 67.1352L65.0148 66.5968C65.9455 66.3489 66.8267 65.8602 67.5563 65.132C69.7648 62.922 69.7648 59.3265 67.5563 57.118L52.5299 42.0914Z" fill="#070404"/>
<path d="M26.5017 11.7523L18.0018 3.25235C17.4479 2.69836 16.5525 2.69836 15.9986 3.25235C15.4446 3.80617 15.4446 4.70165 15.9986 5.25547L23.497 12.7538L0.415368 35.8355C-0.138456 36.3895 -0.138456 37.2848 0.415368 37.8386C0.691616 38.1149 1.05436 38.2536 1.41693 38.2536C1.77951 38.2536 2.14225 38.1149 2.4185 37.8386L26.5017 13.7556C27.0557 13.2016 27.0557 12.3063 26.5017 11.7523Z" fill="#070404"/>
<path d="M34.8438 81.908C34.0548 82.3217 32.7076 82.3712 31.4935 81.1599C30.2794 79.9444 30.2894 78.5321 30.6832 77.9172C31.0741 77.3081 30.9438 76.5034 30.3785 76.0487C29.8161 75.594 29.0016 75.6365 28.4888 76.1506C27.3823 77.2556 25.5832 77.2541 24.481 76.1506C23.3775 75.0456 23.3775 73.2478 24.481 72.1428C24.7588 71.8666 24.8961 71.5039 24.8961 71.1413C24.8961 70.7787 24.7586 70.4173 24.481 70.1397C23.9285 69.5872 23.0317 69.5872 22.4779 70.1397L21.4764 71.1413C20.3729 72.2463 18.5736 72.2463 17.4701 71.1413C16.3666 70.0363 16.3666 68.2385 17.4701 67.135L18.4717 66.1335C18.976 65.6306 19.027 64.8316 18.5935 64.2678C18.1601 63.704 17.3738 63.5496 16.7604 63.9051C15.9897 64.3498 14.6339 64.2975 13.4638 63.1288C12.2201 61.885 12.2257 60.5066 12.6266 59.9257C13.0714 59.2825 12.9085 58.4 12.2654 57.9551C11.6207 57.5088 10.7397 57.6717 10.2948 58.3163C9.14879 59.9767 9.17984 62.851 11.4607 65.1319C12.3588 66.0287 13.3363 66.5641 14.2997 66.8206C13.9767 67.5403 13.8067 68.3265 13.8067 69.1383C13.8067 70.6514 14.396 72.0751 15.467 73.1446C16.9204 74.5995 18.976 75.0967 20.8417 74.6364C20.9522 75.9198 21.4976 77.1736 22.4779 78.1539C23.8875 79.562 25.8566 80.072 27.6728 79.6867C27.8485 80.8598 28.4166 82.0879 29.4904 83.1632C30.8007 84.4722 32.3307 84.9963 33.7275 84.9963C34.6244 84.9963 35.4657 84.7795 36.1585 84.417C36.8513 84.0542 37.1191 83.1986 36.755 82.5045C36.3922 81.813 35.5338 81.5439 34.8438 81.908Z" fill="#070404"/>
</g>
<defs>
<clipPath id="clip0_752_529">
<rect width="85" height="85" fill="white"/>
</clipPath>
</defs>
</svg>
