<svg width="170" height="44" viewBox="0 0 170 44" fill="none" xmlns="http://www.w3.org/2000/svg">
<g clip-path="url(#clip0_744_173)">
<path fill-rule="evenodd" clip-rule="evenodd" d="M42.6243 23.8347L38.4329 23.8343C37.9544 23.8343 37.564 24.203 37.5206 24.6798C36.9184 31.3053 32.5398 34.6017 31.0401 35.7315C27.43 38.4523 20.5054 39.5407 17.2234 33.7193C19.8373 33.4219 23.1124 32.3429 26.4952 30.1641C31.3486 27.0385 33.2845 21.3105 30.2594 16.4698C26.2084 9.98853 18.5535 11.9196 15.0941 14.5322C12.4995 16.4915 10.9035 19.0334 13.0242 20.9443C15.6619 23.3219 19.0262 19.3594 21.2674 18.566C22.96 17.9667 24.1418 18.3349 25.0475 19.5855C26.0892 21.0238 25.8721 22.9151 24.007 24.5139C21.1601 26.9545 12.4917 30.7875 7.48058 24.3197C4.35749 20.2893 6.21193 13.1567 11.9129 9.15287C14.2494 7.51227 16.8207 6.58976 19.2692 6.41321C19.7468 6.3788 20.1159 5.9794 20.1159 5.50053L20.1155 1.3259C20.1155 0.802795 19.6788 0.382506 19.1569 0.410771C15.5349 0.609036 11.7814 1.87441 8.4379 4.25646C0.139854 10.1696 -2.4847 20.7211 2.57679 27.8242C4.55453 30.6003 7.41504 32.4335 10.6594 33.2908C11.5163 36.5348 13.3499 39.3953 16.1256 41.373C21.7295 45.3662 29.5032 44.6059 35.4052 39.9897C40.0129 36.3852 43.1376 30.926 43.539 24.7933C43.573 24.2714 43.1466 23.8347 42.6243 23.8347Z" fill="white"/>
<path fill-rule="evenodd" clip-rule="evenodd" d="M58.5556 20.6952H64.3753C64.2758 19.3393 63.1849 18.2812 61.6307 18.2812C59.9443 18.2812 58.8534 19.2729 58.5556 20.6952ZM68.697 23.8363H58.3241C58.5888 25.5888 59.9443 26.8124 61.9613 26.8124C63.5048 26.8124 64.76 26.2647 65.7271 25.1693C65.8418 25.0399 66.0413 25.0325 66.1679 25.1509L68.6048 27.4321C68.8502 27.6624 68.8707 28.0487 68.6446 28.2981C66.9442 30.1735 64.7604 31.1111 62.0936 31.1111C59.6137 31.1111 57.5966 30.35 55.9765 28.829C54.3564 27.2748 53.5625 25.2582 53.5625 22.745C53.5625 20.2651 54.29 18.2148 55.7782 16.5947C57.266 14.9746 59.184 14.1479 61.5316 14.1479C64.0116 14.1479 65.9291 14.9746 67.285 16.6279C68.6409 18.2812 69.3352 20.2319 69.3352 22.4472L69.3164 23.2313C69.3086 23.568 69.0337 23.8363 68.697 23.8363Z" fill="white"/>
<path fill-rule="evenodd" clip-rule="evenodd" d="M75.8036 30.747H71.7277C71.5564 30.747 71.418 30.6086 71.418 30.4374V14.8547C71.418 14.6835 71.5564 14.5446 71.7277 14.5446H75.7372C75.9084 14.5446 76.0473 14.6835 76.0473 14.8547V15.6691C77.1054 14.6437 78.3949 14.1481 79.8827 14.1481C83.8841 14.1481 86.496 16.7935 86.496 21.3233V30.4374C86.496 30.6086 86.3575 30.747 86.1863 30.747H82.0772C81.9064 30.747 81.7675 30.6086 81.7675 30.4374V21.6871C81.7675 19.8355 80.9077 18.5128 79.0893 18.5128C77.1054 18.5128 76.1132 19.9014 76.1132 22.646V30.4374C76.1132 30.6086 75.9744 30.747 75.8036 30.747Z" fill="white"/>
<path fill-rule="evenodd" clip-rule="evenodd" d="M98.746 18.2578C98.746 18.5998 98.4687 18.8763 98.1262 18.8763H98.0185C95.2739 18.8763 93.5215 20.6619 93.5215 23.9685V30.4372C93.5215 30.6084 93.383 30.7468 93.2118 30.7468H89.1359C88.965 30.7468 88.8262 30.6084 88.8262 30.4372V14.8545C88.8262 14.6833 88.965 14.5448 89.1359 14.5448H93.1458C93.3166 14.5448 93.4555 14.6833 93.4555 14.8545V15.9994C94.4141 14.8754 95.7368 14.3134 97.4896 14.3134C97.8632 14.3134 98.1872 14.3134 98.4502 14.3248C98.6165 14.3322 98.746 14.4678 98.746 14.6337V18.2578Z" fill="white"/>
<path fill-rule="evenodd" clip-rule="evenodd" d="M129.189 25.4898C129.949 24.6627 130.346 23.6714 130.346 22.5465C130.346 20.2984 128.726 18.5128 126.213 18.5128C125.056 18.5128 124.097 18.9097 123.336 19.7032C122.576 20.4971 122.212 21.4556 122.212 22.5465C122.212 23.6378 122.609 24.6299 123.369 25.4566C124.129 26.2832 125.089 26.7129 126.213 26.7129C127.436 26.7129 128.429 26.3164 129.189 25.4898ZM130.346 15.6359V14.8547C130.346 14.6835 130.485 14.5446 130.656 14.5446H134.765C134.936 14.5446 135.075 14.6835 135.075 14.8547V30.4374C135.075 30.6086 134.936 30.7471 134.765 30.7471H130.656C130.485 30.7471 130.346 30.6086 130.346 30.4374V29.5571C129.09 30.582 127.602 31.1112 125.85 31.1112C123.501 31.1112 121.484 30.3174 119.831 28.6972C118.178 27.0767 117.352 25.0596 117.352 22.646C117.352 20.232 118.178 18.215 119.831 16.5948C121.484 14.9747 123.501 14.1481 125.85 14.1481C127.8 14.1481 129.288 14.6437 130.346 15.6359Z" fill="white"/>
<path fill-rule="evenodd" clip-rule="evenodd" d="M152.216 27.2758C152.451 27.5036 152.47 27.8768 152.257 28.1242C150.548 30.1064 148.319 31.1109 145.515 31.1109C143.069 31.1109 141.018 30.3174 139.398 28.6973C137.778 27.0767 136.951 25.0597 136.951 22.6457C136.951 20.2321 137.778 18.215 139.398 16.5949C141.052 14.9748 143.101 14.1477 145.515 14.1477C147.907 14.1477 150.014 15.0858 151.863 16.9353C152.106 17.179 152.1 17.5768 151.852 17.8164L149.357 20.2341C149.231 20.3554 149.029 20.3517 148.913 20.221C147.94 19.1261 146.854 18.5788 145.681 18.5788C143.432 18.5788 141.746 20.2653 141.746 22.6457C141.746 25.0269 143.432 26.713 145.681 26.713C147.014 26.713 148.201 26.1026 149.244 24.8544C149.36 24.7156 149.564 24.7074 149.695 24.8331L152.216 27.2758Z" fill="white"/>
<path fill-rule="evenodd" clip-rule="evenodd" d="M158.973 30.747H154.898C154.727 30.747 154.588 30.6085 154.588 30.4373V7.87768C154.588 7.70645 154.727 7.56799 154.898 7.56799H158.973C159.144 7.56799 159.283 7.70645 159.283 7.87768V15.4707C160.242 14.5777 161.498 14.148 163.053 14.148C167.054 14.148 169.666 16.7935 169.666 21.3233V30.4373C169.666 30.6085 169.527 30.747 169.356 30.747H165.247C165.076 30.747 164.938 30.6085 164.938 30.4373V21.687C164.938 19.8354 164.078 18.5127 162.259 18.5127C160.275 18.5127 159.283 19.9014 159.283 22.646V30.4373C159.283 30.6085 159.144 30.747 158.973 30.747Z" fill="white"/>
<path fill-rule="evenodd" clip-rule="evenodd" d="M105.022 20.6952H110.842C110.743 19.3393 109.651 18.2812 108.097 18.2812C106.411 18.2812 105.32 19.2729 105.022 20.6952ZM115.164 23.8363H104.791C105.055 25.5888 106.411 26.8124 108.428 26.8124C109.972 26.8124 111.226 26.2647 112.194 25.1693C112.308 25.0399 112.508 25.0325 112.634 25.1509L115.071 27.4321C115.317 27.6624 115.337 28.0487 115.111 28.2981C113.411 30.1735 111.227 31.1111 108.56 31.1111C106.08 31.1111 104.063 30.35 102.443 28.829C100.823 27.2748 100.029 25.2582 100.029 22.745C100.029 20.2651 100.756 18.2148 102.245 16.5947C103.732 14.9746 105.65 14.1479 107.998 14.1479C110.478 14.1479 112.396 14.9746 113.752 16.6279C115.107 18.2812 115.801 20.2319 115.801 22.4472L115.783 23.2313C115.775 23.568 115.5 23.8363 115.164 23.8363Z" fill="white"/>
</g>
<defs>
<clipPath id="clip0_744_173">
<rect width="170" height="43.9167" fill="white"/>
</clipPath>
</defs>
</svg>
