<svg width="85" height="85" viewBox="0 0 85 85" fill="none" xmlns="http://www.w3.org/2000/svg">
<path d="M46.6774 67.96C46.0565 67.96 45.5528 68.4636 45.5528 69.0845V70.778H8.70816V22.5762H10.524C11.1453 22.5762 11.6486 22.0728 11.6486 21.4516C11.6486 20.8305 11.1451 20.3271 10.524 20.3271H7.58357C6.96234 20.3271 6.45898 20.8305 6.45898 21.4516V71.9029C6.45898 72.5238 6.96251 73.0275 7.58357 73.0275H46.6774C47.2983 73.0275 47.802 72.5238 47.802 71.9029V69.0846C47.802 68.4637 47.2983 67.96 46.6774 67.96Z" fill="#070404"/>
<path d="M54.2832 56.0125C53.6622 56.0125 53.1586 56.5159 53.1586 57.1369V63.3878H16.3138V15.1859H33.9417C34.5629 15.1859 35.0663 14.6824 35.0663 14.0614C35.0663 13.4403 34.5627 12.9368 33.9417 12.9368H15.189C14.568 12.9368 14.0645 13.4403 14.0645 14.0614V64.5125C14.0645 65.1338 14.568 65.6371 15.189 65.6371H54.2831C54.904 65.6371 55.4075 65.1338 55.4075 64.5125V57.1371C55.4077 56.5159 54.9041 56.0125 54.2832 56.0125Z" fill="#070404"/>
<path d="M54.2828 24.1319C53.6617 24.1319 53.1582 24.6354 53.1582 25.2565V40.169C53.1582 40.7901 53.6617 41.2936 54.2828 41.2936C54.9037 41.2936 55.4072 40.7901 55.4072 40.169V25.2565C55.4072 24.6356 54.9037 24.1319 54.2828 24.1319Z" fill="#070404"/>
<path d="M21.3863 59.3536H26.619C27.24 59.3536 27.7435 58.8501 27.7435 58.229V46.6773C27.7435 46.0563 27.24 45.5527 26.619 45.5527H21.3863C20.7651 45.5527 20.2617 46.0563 20.2617 46.6773V58.229C20.2617 58.8499 20.7651 59.3536 21.3863 59.3536ZM22.5109 47.8019H25.4942V57.1043H22.5109V47.8019Z" fill="#070404"/>
<path d="M32.6461 49.3212C32.0248 49.3212 31.5215 49.8246 31.5215 50.4456V58.2288C31.5215 58.8499 32.025 59.3534 32.6461 59.3534H37.8787C38.4998 59.3534 39.0033 58.8499 39.0033 58.2288V54.3771C39.0033 53.756 38.4998 53.2525 37.8787 53.2525C37.2575 53.2525 36.7541 53.756 36.7541 54.3771V57.1042H33.7708V50.4458C33.7707 49.8246 33.2673 49.3212 32.6461 49.3212Z" fill="#070404"/>
<path d="M43.9058 55.2508C43.2849 55.2508 42.7812 55.7543 42.7812 56.3754V58.2288C42.7812 58.8499 43.2849 59.3534 43.9058 59.3534H49.1387C49.7596 59.3534 50.2632 58.8499 50.2632 58.2288V56.3754C50.2632 55.7543 49.7596 55.2508 49.1387 55.2508C48.5176 55.2508 48.0141 55.7543 48.0141 56.3754V57.1042H45.0306V56.3754C45.0304 55.7543 44.5267 55.2508 43.9058 55.2508Z" fill="#070404"/>
<path d="M47.353 24.5033C46.9137 24.0642 46.202 24.064 45.7627 24.5034L38.1517 32.1144C37.7124 32.5537 37.7124 33.2656 38.1519 33.7048C38.5908 34.144 39.303 34.1441 39.7423 33.7047L46.5579 26.8891L47.8769 28.2081L39.4921 36.5929C39.0528 37.0321 39.0528 37.7443 39.4921 38.1834C39.7118 38.4029 39.9996 38.5128 40.2875 38.5128C40.5752 38.5128 40.8631 38.4029 41.0827 38.1834L50.2629 29.0034C50.4739 28.7924 50.5922 28.5064 50.5922 28.2081C50.5922 27.9099 50.4737 27.6237 50.2629 27.4129L47.353 24.5033Z" fill="#070404"/>
<path d="M22.1178 40.0305C22.3374 40.2498 22.6253 40.3597 22.9132 40.3597C23.201 40.3597 23.4889 40.2498 23.7085 40.0305L26.6776 37.0613C27.1169 36.6221 27.1169 35.91 26.6776 35.4707C26.2383 35.0316 25.5263 35.0316 25.087 35.4707L22.9132 37.6447L21.594 36.3255L26.6776 31.2422C27.1169 30.8029 27.1169 30.0908 26.6776 29.6517C26.2383 29.2126 25.5263 29.2126 25.087 29.6517L19.2084 35.5303C18.7691 35.9696 18.7691 36.6816 19.2084 37.1209L22.1178 40.0305Z" fill="#070404"/>
<path d="M77.2774 54.9462L70.7224 48.3912C70.2831 47.9521 69.5714 47.9521 69.1321 48.3912C68.6929 48.8305 68.6929 49.5426 69.1321 49.9818L75.6871 56.5368C76.0772 56.9271 76.2922 57.4459 76.2922 57.9977C76.2922 58.5494 76.0772 59.0682 75.6871 59.4587C74.8813 60.2645 73.5711 60.2645 72.7651 59.4587L62.402 49.0956C67.0828 45.2527 70.0746 39.4244 70.0746 32.9096C70.0746 21.3649 60.6826 11.9727 49.1381 11.9727C37.5933 11.9727 28.2012 21.3649 28.2012 32.9096C28.2012 44.4543 37.5933 53.8464 49.1381 53.8464C53.3524 53.8464 57.2766 52.5906 60.5651 50.4395L71.1748 61.0489C71.9898 61.8639 73.0737 62.3128 74.2262 62.3128C75.3786 62.3128 76.4626 61.8639 77.2774 61.0489C78.9601 59.3665 78.9601 56.6286 77.2774 54.9462ZM49.1381 51.5972C38.8336 51.5972 30.4505 43.2139 30.4505 32.9096C30.4505 22.6052 38.8338 14.2221 49.1381 14.2221C59.4421 14.2221 67.8254 22.6052 67.8254 32.9096C67.8256 43.2139 59.4423 51.5972 49.1381 51.5972Z" fill="#070404"/>
<path d="M49.1377 17.5512C40.6689 17.5512 33.7793 24.441 33.7793 32.9096C33.7793 41.3783 40.6689 48.2679 49.1377 48.2679C57.6064 48.2679 64.4958 41.3783 64.4958 32.9096C64.4958 24.441 57.6064 17.5512 49.1377 17.5512ZM49.1377 46.0184C41.9092 46.0184 36.0285 40.1378 36.0285 32.9095C36.0285 25.6812 41.9092 19.8004 49.1377 19.8004C56.3659 19.8004 62.2467 25.6812 62.2467 32.9095C62.2467 40.1378 56.3659 46.0184 49.1377 46.0184Z" fill="#070404"/>
<path d="M20.8058 22.5124V20.8659C20.8058 20.2448 20.3023 19.7413 19.6812 19.7413C19.06 19.7413 18.5566 20.2448 18.5566 20.8659V22.5124C18.5566 23.1336 19.0602 23.637 19.6812 23.637C20.3023 23.6372 20.8058 23.1338 20.8058 22.5124Z" fill="#070404"/>
<path d="M24.4738 22.5124V18.9871C24.4738 18.366 23.9703 17.8625 23.3492 17.8625C22.7281 17.8625 22.2246 18.366 22.2246 18.9871V22.5124C22.2246 23.1337 22.7281 23.637 23.3492 23.637C23.9703 23.6372 24.4738 23.1338 24.4738 22.5124Z" fill="#070404"/>
<path d="M28.1418 22.5124V21.9388C28.1418 21.3177 27.6382 20.8142 27.0172 20.8142C26.3961 20.8142 25.8926 21.3177 25.8926 21.9388V22.5124C25.8926 23.1336 26.3961 23.637 27.0172 23.637C27.6382 23.6371 28.1418 23.1338 28.1418 22.5124Z" fill="#070404"/>
</svg>
