<svg width="85" height="85" viewBox="0 0 85 85" fill="none" xmlns="http://www.w3.org/2000/svg">
<path d="M74.1649 44.5651H66.6461C66.025 44.5651 65.5215 45.0686 65.5215 45.6897C65.5215 46.3107 66.025 46.8142 66.6461 46.8142H73.0402V76.742H67.7708V50.7445C67.7708 50.1234 67.2673 49.6199 66.6462 49.6199C66.0252 49.6199 65.5217 50.1234 65.5217 50.7445V77.8668C65.5217 78.4879 66.0252 78.9912 66.6462 78.9912H74.1651C74.786 78.9912 75.2895 78.4879 75.2895 77.8668V45.6898C75.2895 45.0688 74.786 44.5651 74.1649 44.5651Z" fill="#070404"/>
<path d="M60.038 58.5539H52.5193C51.8981 58.5539 51.3945 59.0574 51.3945 59.6785V77.8668C51.3945 78.4879 51.8981 78.9912 52.5193 78.9912H60.038C60.659 78.9912 61.1624 78.4879 61.1624 77.8668V59.6787C61.1624 59.0574 60.659 58.5539 60.038 58.5539ZM58.9132 76.7422H53.6437V60.8032H58.9132V76.7422Z" fill="#070404"/>
<path d="M45.9108 64.8408H38.3922C37.7709 64.8408 37.2676 65.3443 37.2676 65.9655V77.8668C37.2676 78.4879 37.7711 78.9913 38.3922 78.9913H45.9108C46.5321 78.9913 47.0354 78.4879 47.0354 77.8668V65.9655C47.0354 65.3444 46.5321 64.8408 45.9108 64.8408ZM44.7861 76.7423H39.5166V67.0901H44.7861V76.7423Z" fill="#070404"/>
<path d="M31.786 70.1489H24.2672C23.6461 70.1489 23.1426 70.6523 23.1426 71.2735V77.8668C23.1426 78.4879 23.6461 78.9912 24.2672 78.9912H31.786C32.4071 78.9912 32.9106 78.4879 32.9106 77.8668V71.2735C32.9106 70.6523 32.4072 70.1489 31.786 70.1489ZM30.6614 76.7422H25.3919V72.3983H30.6614V76.7422Z" fill="#070404"/>
<path d="M68.5779 29.4377C68.7677 29.0546 68.7235 28.5969 68.4642 28.2569L64.0266 22.441C63.8139 22.1621 63.4832 21.9984 63.1326 21.9984C62.7818 21.9984 62.4511 22.1621 62.2383 22.441L57.8008 28.2569C57.424 28.7506 57.5191 29.4563 58.0127 29.8332C58.2165 29.9886 58.4563 30.0638 58.694 30.0638C59.0328 30.0638 59.3675 29.9115 59.589 29.6214L63.1324 24.9772L65.2971 27.8144H63.1324C62.5112 27.8144 62.0078 28.318 62.0078 28.939C62.0078 45.1314 48.8343 58.3047 32.6422 58.3047C32.0209 58.3047 31.5176 58.8082 31.5176 59.4295C31.5176 60.0504 32.0211 60.5539 32.6422 60.5539C49.6981 60.5539 63.6403 46.9771 64.2349 30.0636H67.5699C67.9977 30.0636 68.3885 29.8211 68.5779 29.4377Z" fill="#070404"/>
<path d="M48.1001 45.8585C48.1641 45.8095 48.2217 45.7541 48.274 45.6927C52.7598 41.5044 55.5718 35.5453 55.5718 28.9389C55.5718 16.2951 45.2853 6.00861 32.6415 6.00861C32.0684 6.00861 31.5023 6.03683 30.9397 6.07833C30.9384 6.07833 30.937 6.07817 30.9357 6.07833C30.9349 6.07833 30.934 6.07866 30.933 6.07883C24.4631 6.55812 18.7321 9.72869 14.8617 14.4784C14.7968 14.542 14.7417 14.6144 14.6936 14.6922C11.5788 18.608 9.71094 23.558 9.71094 28.9387C9.71094 34.9256 12.0196 40.3815 15.7904 44.4695C15.8386 44.5322 15.8932 44.589 15.9533 44.6403C20.138 49.0852 26.0691 51.8689 32.6413 51.8689C38.5925 51.8693 44.0202 49.5894 48.1001 45.8585ZM31.7322 45.5755C29.3033 43.6978 26.2746 42.664 23.2044 42.664H17.1896C13.94 39.0095 11.9606 34.2021 11.9606 28.9389C11.9606 24.23 13.5456 19.8864 16.2058 16.406H22.4789C24.1334 16.406 25.4796 17.7521 25.4796 19.4067C25.4796 21.0614 24.1334 22.4076 22.4789 22.4076H19.4293C16.8636 22.4076 14.7761 24.4951 14.7761 27.0609C14.7761 29.6268 16.8636 31.7141 19.4293 31.7141H19.6646C21.1848 31.7141 22.4213 32.951 22.4213 34.4712C22.4213 35.9914 21.1846 37.228 19.6646 37.228C19.0433 37.228 18.54 37.7314 18.54 38.3526C18.54 38.9737 19.0435 39.4772 19.6646 39.4772C22.4249 39.4772 24.6706 37.2313 24.6706 34.471C24.6706 31.7105 22.4249 29.4648 19.6646 29.4648H19.4293C18.1037 29.4648 17.0254 28.3864 17.0254 27.0607C17.0254 25.7351 18.1039 24.6568 19.4293 24.6568H22.4789C25.3737 24.6568 27.7289 22.3017 27.7289 19.4066C27.7289 16.5116 25.3737 14.1565 22.4789 14.1565H18.1982C21.3576 11.0688 25.4984 8.98543 30.1038 8.41882C31.0039 12.4377 34.5568 15.347 38.7854 15.347H42.0558C42.6768 15.347 43.1802 14.8435 43.1802 14.2224C43.1802 13.6013 42.6768 13.0978 42.0558 13.0978H38.7854C35.7467 13.0978 33.1762 11.0879 32.3847 8.2641C32.4707 8.2631 32.5553 8.25762 32.6415 8.25762C44.045 8.25762 53.3224 17.5351 53.3224 28.9387C53.3224 34.7898 50.876 40.077 46.957 43.8426H43.1943C41.9907 43.8426 41.0115 42.8636 41.0115 41.66C41.0115 40.4564 41.9907 39.4774 43.1943 39.4774H43.6206C46.1192 39.4774 48.1519 37.4445 48.1519 34.9461C48.1519 32.4478 46.1192 30.4151 43.6206 30.4151H39.6188C37.7369 30.4151 36.2059 28.8839 36.2059 27.002C36.2059 25.12 37.7369 23.589 39.6188 23.589H47.8867C48.5078 23.589 49.0112 23.0856 49.0112 22.4644C49.0112 21.8432 48.5078 21.3398 47.8867 21.3398H39.6188C36.4966 21.3398 33.9567 23.8799 33.9567 27.002C33.9567 30.124 36.4967 32.6643 39.6188 32.6643H43.6206C44.8789 32.6643 45.9025 33.6879 45.9025 34.9461C45.9025 36.2044 44.8789 37.228 43.6206 37.228H43.1943C40.7504 37.228 38.7623 39.2162 38.7623 41.66C38.7623 44.1037 40.7505 46.0918 43.1943 46.0918H44.1823C40.8837 48.3184 36.9118 49.6196 32.6415 49.6196C27.665 49.6196 23.094 47.8522 19.5216 44.9129H23.2042C25.7793 44.9129 28.3193 45.7802 30.3566 47.3547C30.5612 47.5129 30.8034 47.5894 31.0436 47.5894C31.3798 47.5894 31.7127 47.4393 31.9341 47.1524C32.3141 46.6614 32.2238 45.9553 31.7322 45.5755Z" fill="#070404"/>
</svg>
