<svg width="125" height="125" viewBox="0 0 125 125" fill="none" xmlns="http://www.w3.org/2000/svg">
<path d="M62.5 7.8125C51.6839 7.8125 41.1106 11.0199 32.1173 17.029C23.124 23.0381 16.1145 31.5792 11.9754 41.572C7.8362 51.5648 6.7532 62.5607 8.86333 73.169C10.9735 83.7773 16.1819 93.5217 23.8301 101.17C31.4783 108.818 41.2227 114.027 51.831 116.137C62.4394 118.247 73.4352 117.164 83.428 113.025C93.4209 108.885 101.962 101.876 107.971 92.8827C113.98 83.8894 117.188 73.3162 117.188 62.5C117.188 47.996 111.426 34.086 101.17 23.8301C90.914 13.5742 77.0041 7.8125 62.5 7.8125ZM91.5899 65.9961L44.7149 89.4336C44.1192 89.7313 43.4573 89.8717 42.792 89.8416C42.1268 89.8114 41.4803 89.6117 40.914 89.2614C40.3476 88.9111 39.8802 88.4219 39.5562 87.8401C39.2322 87.2584 39.0622 86.6034 39.0625 85.9375V39.0625C39.0629 38.3969 39.2333 37.7424 39.5576 37.1612C39.8819 36.58 40.3494 36.0913 40.9156 35.7414C41.4819 35.3916 42.1281 35.1922 42.793 35.1623C43.4579 35.1323 44.1195 35.2728 44.7149 35.5703L91.5899 59.0078C92.2378 59.3326 92.7827 59.8312 93.1634 60.4479C93.5442 61.0647 93.7458 61.7752 93.7458 62.5C93.7458 63.2248 93.5442 63.9353 93.1634 64.5521C92.7827 65.1688 92.2378 65.6674 91.5899 65.9922" fill="white"/>
</svg>
