<svg width="70" height="62" viewBox="0 0 70 62" fill="none" xmlns="http://www.w3.org/2000/svg">
<path d="M42 3.00002C42 2.15951 41.5479 1.38395 40.8166 0.96972C40.0852 0.555494 39.1876 0.566625 38.4668 0.998859L15.6874 14.6576H7C3.13829 14.6576 0 17.7839 0 21.6545V40.309C0 44.1796 3.13829 47.306 7 47.306H15.6874L38.4668 60.9647C39.1876 61.3969 40.0852 61.4081 40.8166 60.9938C41.5479 60.5796 42 59.804 42 58.9635V3.00002Z" fill="#070404"/>
<path d="M65.3333 5.33336V56.6667H70V5.33336H65.3333Z" fill="#070404"/>
<path d="M56 14.6667V47.3334H60.6667V14.6667H56Z" fill="#070404"/>
<path d="M46.6667 24V38H51.3333V24H46.6667Z" fill="#070404"/>
</svg>
