<svg width="170" height="36" viewBox="0 0 170 36" fill="none" xmlns="http://www.w3.org/2000/svg">
<path d="M160.326 30.009C160.326 27.3459 162.328 25.1853 164.793 25.1853C167.258 25.1853 169.258 27.3459 169.258 30.009C169.258 32.6721 167.258 34.8315 164.793 34.8315C162.328 34.8315 160.326 32.6721 160.326 30.009Z" fill="#86BC24"/>
<path d="M17.8825 17.2341C17.8825 14.179 17.3358 11.9122 16.2423 10.4356C15.1476 8.95998 13.4895 8.22301 11.2602 8.22301H8.88866V26.9068H10.7031C13.1795 26.9068 14.9939 26.1141 16.1492 24.5229C17.3034 22.9347 17.8825 20.5046 17.8825 17.2341ZM26.3397 16.9159C26.3397 22.4823 24.9542 26.7716 22.1834 29.7821C19.4126 32.7941 15.5173 34.3001 10.4964 34.3001H0.740234V0.945758H11.1774C16.0187 0.945758 19.7563 2.31512 22.39 5.05221C25.0229 7.79073 26.3397 11.7433 26.3397 16.9159ZM53.3642 34.2997H61.1276V0.805843H53.3642V34.2997ZM72.0335 21.8063C72.0335 23.9418 72.292 25.5707 72.8077 26.69C73.3246 27.811 74.1904 28.3706 75.4079 28.3706C76.6123 28.3706 77.4642 27.811 77.9603 26.69C78.4566 25.5707 78.7034 23.9418 78.7034 21.8063C78.7034 19.6819 78.4527 18.0796 77.9501 16.9978C77.4459 15.9134 76.5866 15.3704 75.368 15.3704C74.1763 15.3704 73.3248 15.9108 72.8077 16.9853C72.292 18.0615 72.0335 19.6679 72.0335 21.8063ZM86.6051 21.8063C86.6051 25.875 85.6177 29.0489 83.6378 31.3241C81.6593 33.6005 78.8894 34.7396 75.3292 34.7396C71.9146 34.7396 69.1967 33.5755 67.1794 31.2472C65.1595 28.9192 64.1501 25.7731 64.1501 21.8063C64.1501 17.7502 65.1387 14.5985 67.1187 12.3512C69.0985 10.1042 71.8746 8.98053 75.4492 8.98053C77.6578 8.98053 79.612 9.50115 81.3051 10.5412C82.9993 11.5808 84.3072 13.0703 85.2261 15.0102C86.1462 16.9477 86.6051 19.2143 86.6051 21.8063ZM89.6881 34.2999H97.4528V9.42041H89.6881V34.2999ZM89.6879 6.41109H97.4524V0.804199H89.6879V6.41109ZM113.183 27.9542C114.231 27.9542 115.48 27.6665 116.936 27.0958V33.3556C115.89 33.8526 114.894 34.2085 113.948 34.4193C113.002 34.6329 111.892 34.739 110.622 34.739C108.015 34.739 106.136 34.0314 104.982 32.6187C103.833 31.2061 103.257 29.0371 103.257 26.1102V15.8543H100.537V9.42246H103.257V3.06894L111.081 1.59931V9.42246H116.034V15.8543H111.081V25.538C111.081 27.1488 111.783 27.9542 113.183 27.9542ZM131.153 27.9542C132.202 27.9542 133.45 27.6665 134.906 27.0958V33.3556C133.861 33.8526 132.865 34.2085 131.919 34.4193C130.971 34.6329 129.865 34.739 128.592 34.739C125.985 34.739 124.106 34.0314 122.955 32.6187C121.803 31.2061 121.227 29.0371 121.227 26.1102V15.8543H118.506V9.42246H121.227V2.97258L129.049 1.59931V9.42246H134.006V15.8543H129.049V25.538C129.049 27.1488 129.751 27.9542 131.153 27.9542ZM144.704 18.7754C144.81 17.4133 145.17 16.4152 145.785 15.7772C146.403 15.1407 147.166 14.8227 148.078 14.8227C149.073 14.8227 149.864 15.18 150.451 15.9001C151.041 16.6161 151.349 17.575 151.374 18.7754H144.704ZM155.653 11.9138C153.807 9.95973 151.189 8.98135 147.801 8.98135C144.241 8.98135 141.501 10.105 139.581 12.3521C137.661 14.5993 136.701 17.8234 136.701 22.0249C136.701 26.0934 137.739 29.2311 139.809 31.4336C141.881 33.6361 144.79 34.7388 148.537 34.7388C150.336 34.7388 151.884 34.6062 153.182 34.3422C154.471 34.0813 155.72 33.6096 156.931 32.9285L155.738 27.3216C154.858 27.7097 154.02 28.0084 153.23 28.205C152.087 28.4912 150.833 28.6351 149.469 28.6351C147.972 28.6351 146.791 28.2402 145.925 27.45C145.059 26.6586 144.598 25.5672 144.545 24.1771H158.422V20.3568C158.422 16.6818 157.499 13.8665 155.653 11.9138ZM36.6437 18.7754C36.7496 17.4133 37.1101 16.4152 37.7254 15.7772C38.3417 15.1407 39.1055 14.8227 40.0192 14.8227C41.0119 14.8227 41.8027 15.18 42.3909 15.9001C42.9814 16.6161 43.2877 17.575 43.3149 18.7754H36.6437ZM47.5937 11.9138C45.7471 9.95973 43.13 8.98135 39.7415 8.98135C36.1795 8.98135 33.441 10.105 31.5219 12.3521C29.6028 14.5993 28.6412 17.8234 28.6412 22.0249C28.6412 26.0934 29.6778 29.2311 31.7506 31.4336C33.8211 33.6361 36.7302 34.7388 40.4768 34.7388C42.2758 34.7388 43.824 34.6062 45.1216 34.3422C46.4114 34.0813 47.6597 33.6096 48.8721 32.9285L47.678 27.3216C46.7978 27.7097 45.9602 28.0084 45.1707 28.205C44.0256 28.4912 42.7733 28.6351 41.4085 28.6351C39.9133 28.6351 38.7308 28.2402 37.865 27.45C36.9977 26.6586 36.5377 25.5672 36.4846 24.1771H50.3622V20.3568C50.3622 16.6818 49.4394 13.8665 47.5939 11.9138" fill="white"/>
</svg>
